<?xml version="1.0" encoding="utf-8"?><!-- Uploaded to: SVG Repo, www.svgrepo.com, Generator: SVG Repo
Mixer Tools -->
<svg width="800px" height="800px" viewBox="0 -0.5 25 25" fill="none"
    xmlns="http://www.w3.org/2000/svg">
    <path
        d="M18.9909 7.76C18.755 6.44966 18.1503 5.23376 17.2478 4.25493C16.3453 3.27611 15.1824 2.57495 13.8955 2.23375C12.6085 1.89256 11.251 1.92547 9.98208 2.3286C8.71318 2.73173 7.58552 3.48837 6.73147 4.50975C5.87742 5.53114 5.33241 6.77485 5.1603 8.09508C4.9882 9.41531 5.19614 10.7573 5.75979 11.9635C6.32344 13.1697 7.21941 14.1901 8.34255 14.9051C9.4657 15.62 10.7695 15.9999 12.1009 16"
        stroke="#ffffff" stroke-width="1.5" stroke-linecap="round" stroke-linejoin="round" />
    <path
        d="M5.21094 16.25C5.44679 17.5603 6.05147 18.7762 6.95398 19.7551C7.85649 20.7339 9.0194 21.435 10.3063 21.7762C11.5933 22.1174 12.9508 22.0845 14.2197 21.6814C15.4886 21.2783 16.6162 20.5216 17.4703 19.5002C18.3243 18.4789 18.8694 17.2351 19.0415 15.9149C19.2136 14.5946 19.0057 13.2527 18.442 12.0465C17.8784 10.8403 16.9824 9.81988 15.8593 9.10492C14.7361 8.38996 13.4324 8.01014 12.101 8.01001"
        stroke="#ffffff" stroke-width="1.5" stroke-linecap="round" stroke-linejoin="round" />
</svg>
