<!DOCTYPE svg PUBLIC "-//W3C//DTD SVG 1.1//EN" "http://www.w3.org/Graphics/SVG/1.1/DTD/svg11.dtd">
<!-- Uploaded to: SVG Repo, www.svgrepo.com, Transformed by: SVG Repo Mixer Tools -->
<svg version="1.1" id="Uploaded to svgrepo.com" xmlns="http://www.w3.org/2000/svg" xmlns:xlink="http://www.w3.org/1999/xlink" width="800px" height="800px" viewBox="-6.08 -6.08 44.16 44.16" xml:space="preserve" fill="#ffffff" stroke="#ffffff" stroke-width="1.088">
<g id="SVGRepo_bgCarrier" stroke-width="0"/>
<g id="SVGRepo_tracerCarrier" stroke-linecap="round" stroke-linejoin="round" stroke="#fe0101" stroke-width="6.4"> <style type="text/css"> .open_een{fill:#0B1719;} </style> <g> <g> <path class="open_een" d="M16,30c-0.46,0-0.888-0.206-1.174-0.566L4.794,16.301c-0.168-0.22-0.126-0.533,0.094-0.701 c0.219-0.166,0.532-0.125,0.701,0.094l10.026,13.125c0.178,0.225,0.586,0.232,0.775-0.007 c0.108-0.142,11.401-14.926,11.581-15.169c0.95-1.537,1.26-3.41,0.849-5.242c-0.592-2.643-2.778-4.76-5.44-5.268 c-2.538-0.486-5.035,0.934-6.526,2.423c-0.601,0.597-1.536,0.597-2.133,0c-0.983-0.981-1.992-1.686-2.997-2.093 c-1.025-0.416-2.068-0.526-3.104-0.33C5.958,3.641,3.771,5.758,3.18,8.4c-0.411,1.832-0.102,3.705,0.869,5.273 c0.146,0.235,0.073,0.543-0.161,0.688c-0.234,0.145-0.543,0.073-0.688-0.162c-1.11-1.792-1.464-3.929-0.996-6.018 c0.679-3.026,3.182-5.45,6.229-6.032c1.225-0.233,2.459-0.104,3.666,0.385c1.13,0.457,2.249,1.235,3.329,2.312 c0.205,0.204,0.514,0.206,0.719,0c1.674-1.67,4.505-3.254,7.421-2.697c3.048,0.582,5.551,3.006,6.229,6.032 c0.468,2.089,0.114,4.226-0.996,6.018c-0.018,0.029-0.039,0.063-11.621,15.227C16.888,29.794,16.46,30,16,30z"/> </g> <g> <path class="open_een" d="M16,30c-0.46,0-0.888-0.206-1.174-0.566L4.794,16.301c-0.168-0.22-0.126-0.533,0.094-0.701 c0.219-0.166,0.532-0.125,0.701,0.094l10.026,13.125c0.178,0.225,0.586,0.232,0.775-0.007 c0.108-0.142,11.401-14.926,11.581-15.169c0.95-1.537,1.26-3.41,0.849-5.242c-0.592-2.643-2.778-4.76-5.44-5.268 c-2.538-0.486-5.035,0.934-6.526,2.423c-0.601,0.597-1.536,0.597-2.133,0c-0.983-0.981-1.992-1.686-2.997-2.093 c-1.025-0.416-2.068-0.526-3.104-0.33C5.958,3.641,3.771,5.758,3.18,8.4c-0.411,1.832-0.102,3.705,0.869,5.273 c0.146,0.235,0.073,0.543-0.161,0.688c-0.234,0.145-0.543,0.073-0.688-0.162c-1.11-1.792-1.464-3.929-0.996-6.018 c0.679-3.026,3.182-5.45,6.229-6.032c1.225-0.233,2.459-0.104,3.666,0.385c1.13,0.457,2.249,1.235,3.329,2.312 c0.205,0.204,0.514,0.206,0.719,0c1.674-1.67,4.505-3.254,7.421-2.697c3.048,0.582,5.551,3.006,6.229,6.032 c0.468,2.089,0.114,4.226-0.996,6.018c-0.018,0.029-0.039,0.063-11.621,15.227C16.888,29.794,16.46,30,16,30z"/> </g> </g> </g>
<g id="SVGRepo_iconCarrier"> <style type="text/css"> .open_een{fill:#0B1719;} </style> <g> <g> <path class="open_een" d="M16,30c-0.46,0-0.888-0.206-1.174-0.566L4.794,16.301c-0.168-0.22-0.126-0.533,0.094-0.701 c0.219-0.166,0.532-0.125,0.701,0.094l10.026,13.125c0.178,0.225,0.586,0.232,0.775-0.007 c0.108-0.142,11.401-14.926,11.581-15.169c0.95-1.537,1.26-3.41,0.849-5.242c-0.592-2.643-2.778-4.76-5.44-5.268 c-2.538-0.486-5.035,0.934-6.526,2.423c-0.601,0.597-1.536,0.597-2.133,0c-0.983-0.981-1.992-1.686-2.997-2.093 c-1.025-0.416-2.068-0.526-3.104-0.33C5.958,3.641,3.771,5.758,3.18,8.4c-0.411,1.832-0.102,3.705,0.869,5.273 c0.146,0.235,0.073,0.543-0.161,0.688c-0.234,0.145-0.543,0.073-0.688-0.162c-1.11-1.792-1.464-3.929-0.996-6.018 c0.679-3.026,3.182-5.45,6.229-6.032c1.225-0.233,2.459-0.104,3.666,0.385c1.13,0.457,2.249,1.235,3.329,2.312 c0.205,0.204,0.514,0.206,0.719,0c1.674-1.67,4.505-3.254,7.421-2.697c3.048,0.582,5.551,3.006,6.229,6.032 c0.468,2.089,0.114,4.226-0.996,6.018c-0.018,0.029-0.039,0.063-11.621,15.227C16.888,29.794,16.46,30,16,30z"/> </g> <g> <path class="open_een" d="M16,30c-0.46,0-0.888-0.206-1.174-0.566L4.794,16.301c-0.168-0.22-0.126-0.533,0.094-0.701 c0.219-0.166,0.532-0.125,0.701,0.094l10.026,13.125c0.178,0.225,0.586,0.232,0.775-0.007 c0.108-0.142,11.401-14.926,11.581-15.169c0.95-1.537,1.26-3.41,0.849-5.242c-0.592-2.643-2.778-4.76-5.44-5.268 c-2.538-0.486-5.035,0.934-6.526,2.423c-0.601,0.597-1.536,0.597-2.133,0c-0.983-0.981-1.992-1.686-2.997-2.093 c-1.025-0.416-2.068-0.526-3.104-0.33C5.958,3.641,3.771,5.758,3.18,8.4c-0.411,1.832-0.102,3.705,0.869,5.273 c0.146,0.235,0.073,0.543-0.161,0.688c-0.234,0.145-0.543,0.073-0.688-0.162c-1.11-1.792-1.464-3.929-0.996-6.018 c0.679-3.026,3.182-5.45,6.229-6.032c1.225-0.233,2.459-0.104,3.666,0.385c1.13,0.457,2.249,1.235,3.329,2.312 c0.205,0.204,0.514,0.206,0.719,0c1.674-1.67,4.505-3.254,7.421-2.697c3.048,0.582,5.551,3.006,6.229,6.032 c0.468,2.089,0.114,4.226-0.996,6.018c-0.018,0.029-0.039,0.063-11.621,15.227C16.888,29.794,16.46,30,16,30z"/> </g> </g> </g>
</svg>