<!DOCTYPE svg PUBLIC "-//W3C//DTD SVG 1.1//EN" "http://www.w3.org/Graphics/SVG/1.1/DTD/svg11.dtd">
<!-- Uploaded to: SVG Repo, www.svgrepo.com, Transformed by: SVG Repo Mixer Tools -->
<svg fill="#000000" width="800px" height="800px" viewBox="-4.56 -4.56 33.12 33.12" xmlns="http://www.w3.org/2000/svg" stroke="#000000" stroke-width="0.9359999999999999">
<g id="SVGRepo_bgCarrier" stroke-width="0"/>
<g id="SVGRepo_tracerCarrier" stroke-linecap="round" stroke-linejoin="round" stroke="#ffffff" stroke-width="2.304">
<path d="m12 5.217c-1.441 0-2.608-1.168-2.608-2.608s1.168-2.608 2.608-2.608c1.441 0 2.608 1.168 2.608 2.608s-1.168 2.608-2.608 2.608z"/>
<path d="m20.609 5.217c-1.441 0-2.608-1.168-2.608-2.608s1.168-2.608 2.608-2.608c1.441 0 2.608 1.168 2.608 2.608s-1.168 2.608-2.608 2.608z"/>
<path d="m2.609 5.217c-1.441 0-2.608-1.168-2.608-2.608s1.168-2.608 2.608-2.608c1.441 0 2.608 1.168 2.608 2.608s-1.168 2.608-2.608 2.608z"/>
<path d="m12 14.608c-1.441 0-2.608-1.168-2.608-2.608s1.168-2.608 2.608-2.608c1.441 0 2.608 1.168 2.608 2.608s-1.168 2.608-2.608 2.608z"/>
<path d="m20.609 14.608c-1.441 0-2.608-1.168-2.608-2.608s1.168-2.608 2.608-2.608c1.441 0 2.608 1.168 2.608 2.608s-1.168 2.608-2.608 2.608z"/>
<path d="m2.609 14.608c-1.441 0-2.608-1.168-2.608-2.608s1.168-2.608 2.608-2.608c1.441 0 2.608 1.168 2.608 2.608s-1.168 2.608-2.608 2.608z"/>
<path d="m12 23.999c-1.441 0-2.608-1.168-2.608-2.608s1.168-2.608 2.608-2.608c1.441 0 2.608 1.168 2.608 2.608s-1.168 2.608-2.608 2.608z"/>
<path d="m20.609 23.999c-1.441 0-2.608-1.168-2.608-2.608s1.168-2.608 2.608-2.608c1.441 0 2.608 1.168 2.608 2.608s-1.168 2.608-2.608 2.608z"/>
<path d="m2.609 23.999c-1.441 0-2.608-1.168-2.608-2.608s1.168-2.608 2.608-2.608c1.441 0 2.608 1.168 2.608 2.608s-1.168 2.608-2.608 2.608z"/>
</g>
<g id="SVGRepo_iconCarrier">
<path d="m12 5.217c-1.441 0-2.608-1.168-2.608-2.608s1.168-2.608 2.608-2.608c1.441 0 2.608 1.168 2.608 2.608s-1.168 2.608-2.608 2.608z"/>
<path d="m20.609 5.217c-1.441 0-2.608-1.168-2.608-2.608s1.168-2.608 2.608-2.608c1.441 0 2.608 1.168 2.608 2.608s-1.168 2.608-2.608 2.608z"/>
<path d="m2.609 5.217c-1.441 0-2.608-1.168-2.608-2.608s1.168-2.608 2.608-2.608c1.441 0 2.608 1.168 2.608 2.608s-1.168 2.608-2.608 2.608z"/>
<path d="m12 14.608c-1.441 0-2.608-1.168-2.608-2.608s1.168-2.608 2.608-2.608c1.441 0 2.608 1.168 2.608 2.608s-1.168 2.608-2.608 2.608z"/>
<path d="m20.609 14.608c-1.441 0-2.608-1.168-2.608-2.608s1.168-2.608 2.608-2.608c1.441 0 2.608 1.168 2.608 2.608s-1.168 2.608-2.608 2.608z"/>
<path d="m2.609 14.608c-1.441 0-2.608-1.168-2.608-2.608s1.168-2.608 2.608-2.608c1.441 0 2.608 1.168 2.608 2.608s-1.168 2.608-2.608 2.608z"/>
<path d="m12 23.999c-1.441 0-2.608-1.168-2.608-2.608s1.168-2.608 2.608-2.608c1.441 0 2.608 1.168 2.608 2.608s-1.168 2.608-2.608 2.608z"/>
<path d="m20.609 23.999c-1.441 0-2.608-1.168-2.608-2.608s1.168-2.608 2.608-2.608c1.441 0 2.608 1.168 2.608 2.608s-1.168 2.608-2.608 2.608z"/>
<path d="m2.609 23.999c-1.441 0-2.608-1.168-2.608-2.608s1.168-2.608 2.608-2.608c1.441 0 2.608 1.168 2.608 2.608s-1.168 2.608-2.608 2.608z"/>
</g>
</svg>